<?xml version="1.0"?>
<svg xmlns="http://www.w3.org/2000/svg" xmlns:xlink="http://www.w3.org/1999/xlink" xmlns:svgjs="http://svgjs.com/svgjs" version="1.1" width="512" height="512" x="0" y="0" viewBox="0 0 512 512" style="enable-background:new 0 0 512 512" xml:space="preserve" class=""><g><path xmlns="http://www.w3.org/2000/svg" d="m102.886719 435.976562c-1.308594 2.136719-2.972657 2.851563-4.636719 2.851563-1.542969 0-3.210938-.714844-4.277344-2.851563l-15.925781-30.1875v57.757813c0 2.734375-3.089844 4.160156-6.296875 4.160156-3.09375 0-6.300781-1.425781-6.300781-4.160156v-76.414063c0-4.636718 3.089843-6.300781 6.300781-6.300781 4.515625 0 7.011719 1.546875 9.980469 7.132813l16.636719 31.492187 16.878906-31.492187c2.96875-5.585938 5.347656-7.132813 9.859375-7.132813 3.328125 0 6.300781 1.664063 6.300781 6.300781v76.414063c0 2.734375-3.089844 4.160156-6.300781 4.160156-3.085938 0-6.296875-1.425781-6.296875-4.160156v-57.042969zm0 0" fill="#426286" data-original="#000000" style="" class=""/><path xmlns="http://www.w3.org/2000/svg" d="m147.09375 384.875c0-2.140625 1.902344-4.039062 4.875-4.039062h23.171875c14.617187 0 26.027344 7.011718 26.027344 26.144531v.949219c0 19.015624-11.765625 26.265624-26.738281 26.265624h-14.738282v29.351563c0 2.734375-3.089844 4.160156-6.296875 4.160156-3.09375 0-6.300781-1.425781-6.300781-4.160156zm12.597656 7.128906v32.207032h14.734375c8.796875 0 14.144531-4.992188 14.144531-15.449219v-1.425781c0-10.457032-5.347656-15.332032-14.144531-15.332032zm0 0" fill="#426286" data-original="#000000" style="" class=""/><path xmlns="http://www.w3.org/2000/svg" d="m224.460938 419.21875h18.300781c2.613281 0 4.160156 2.378906 4.160156 5.113281 0 2.253907-1.308594 4.871094-4.160156 4.871094h-18.300781v27.332031h35.296874c2.613282 0 4.15625 2.613282 4.15625 5.703125 0 2.617188-1.304687 5.46875-4.15625 5.46875h-42.308593c-2.734375 0-5.585938-1.425781-5.585938-4.160156v-78.554687c0-2.730469 2.851563-4.15625 5.585938-4.15625h42.308593c2.851563 0 4.15625 2.851562 4.15625 5.464843 0 3.089844-1.542968 5.703125-4.15625 5.703125h-35.296874zm0 0" fill="#426286" data-original="#000000" style="" class=""/><path xmlns="http://www.w3.org/2000/svg" d="m298.738281 392.003906c-8.914062 0-14.023437 4.875-14.023437 15.332032v34.582031c0 10.457031 5.109375 15.332031 14.023437 15.332031 8.792969 0 14.140625-4.875 14.140625-15.332031v-9.746094h-12.003906c-2.613281 0-4.039062-2.496094-4.039062-5.109375 0-2.375 1.425781-4.988281 4.039062-4.988281h20.441406c2.617188 0 4.160156 2.019531 4.160156 4.277343v15.566407c0 19.253906-11.765624 26.503906-26.738281 26.503906-15.09375 0-26.621093-7.25-26.621093-26.503906v-34.582031c0-19.253907 11.765624-26.5 26.265624-26.5 15.925782 0 27.09375 8.554687 27.09375 21.984374 0 4.871094-2.136718 6.058594-6.296874 6.058594-3.328126 0-6.179688-1.066406-6.300782-4.15625-.710937-6.894531-3.800781-12.71875-14.140625-12.71875zm0 0" fill="#426286" data-original="#000000" style="" class=""/><path xmlns="http://www.w3.org/2000/svg" d="m244.773438 210.019531c0-6.011719-3.109376-11.394531-8.3125-14.402343l-49.238282-28.425782c-5.207031-3.007812-11.425781-3.003906-16.632812 0-5.207032 3.007813-8.3125 8.390625-8.3125 14.402344v56.855469c0 6.011719 3.105468 11.394531 8.3125 14.402343 2.605468 1.5 5.460937 2.253907 8.316406 2.253907s5.710938-.753907 8.316406-2.253907l49.234375-28.425781c5.207031-3.007812 8.316407-8.390625 8.316407-14.40625zm-15.816407 1.414063-49.238281 28.425781c-.671875.386719-1.253906.214844-1.628906 0-.371094-.214844-.8125-.632813-.8125-1.410156v-56.855469c0-.773438.441406-1.195312.8125-1.40625.210937-.125.492187-.234375.816406-.234375.25 0 .523438.066406.8125.230469l49.238281 28.429687c.671875.386719.8125.980469.8125 1.410157 0 .429687-.140625 1.019531-.8125 1.410156zm0 0" fill="#426286" data-original="#000000" style="" class=""/><path xmlns="http://www.w3.org/2000/svg" d="m289.015625 210.023438c0-52.175782-42.445313-94.621094-94.621094-94.621094s-94.621093 42.445312-94.621093 94.621094c0 52.171874 42.445312 94.617187 94.621093 94.617187s94.621094-42.445313 94.621094-94.617187zm-174.238281 0c0-43.902344 35.71875-79.621094 79.617187-79.621094 43.902344 0 79.617188 35.71875 79.617188 79.621094 0 43.898437-35.714844 79.617187-79.617188 79.617187-43.898437 0-79.617187-35.71875-79.617187-79.617187zm0 0" fill="#426286" data-original="#000000" style="" class=""/><path xmlns="http://www.w3.org/2000/svg" d="m379.957031 99.703125c-1.671875-1.546875-3.34375-3.09375-5.015625-4.640625-17.941406-16.59375-35.878906-33.191406-53.820312-49.785156-9.265625-8.574219-18.53125-17.144532-27.796875-25.714844-5.367188-4.96875-10.757813-11.058594-16.859375-15.070312-4.449219-2.917969-9.65625-4.492188-15.054688-4.492188h-233.902344c-15.167968 0-27.50390575 12.339844-27.50390575 27.503906v40.714844c0 4.144531 3.35546875 7.5 7.49999975 7.5 4.144532 0 7.5-3.355469 7.5-7.5v-40.714844c0-6.894531 5.609375-12.5 12.503906-12.5l237.769532.621094v71.453125c0 14.136719 11.5 25.636719 25.636718 25.636719h80.59375c1.460938 2.085937 2.273438 4.597656 2.273438 7.179687v220.328125h-358.777344v-237.914062c0-4.144532-3.355468-7.503906-7.5-7.503906-4.144531 0-7.49999975 3.359374-7.49999975 7.503906v245.375c0 .011718-.00390625.027344-.00390625.039062 0 .011719.00390625.027344.00390625.039063v136.734375c0 15.164062 12.33593775 27.503906 27.50390575 27.503906h46.867188c4.140625 0 7.5-3.359375 7.5-7.5 0-4.144531-3.359375-7.503906-7.5-7.503906h-46.867188c-6.894531 0-12.503906-5.605469-12.503906-12.5v-129.273438h358.777344v129.273438c0 6.894531-5.609375 12.5-12.503906 12.5h-251.648438c-4.140625 0-7.5 3.359375-7.5 7.503906 0 4.140625 3.359375 7.5 7.5 7.5h251.648438c15.167968 0 27.507812-12.339844 27.507812-27.503906v-364.601563c0-7.640625-3.21875-15-8.828125-20.191406zm-89.042969-1.992187c-5.863281 0-10.632812-4.769532-10.632812-10.632813v-58.886719l74.941406 69.519532zm0 0" fill="#426286" data-original="#000000" style="" class=""/></g></svg>
